Coordinates
version=1
nRows=49
nColumns=12
inDegrees=yes

Units are S.I. units (second, meters, Newtons, ...)
Angles are in degrees

endheader
time	SC_y	SC_z	SC_x	AC_y	AC_z	AC_x	GH_y	GH_z	GH_yy	EL_x	PS_y
       0.0              -38.32          13.33          80.66          39.19          -12.5          5.639           6.88          18.47         -111.0          108.0          65.14
   0.04734              -38.32          13.32          80.65          39.19          -12.5          5.637          6.864          18.46         -111.0          108.0          65.15
   0.09468              -38.32          13.32          80.64          39.19          -12.5          5.635          6.846          18.46         -111.0          108.0          65.17
     0.142              -38.32          13.32          80.64          39.19          -12.5          5.633          6.827          18.45         -110.9          108.0          65.18
    0.1894              -38.32          13.32          80.63           39.2          -12.5           5.63          6.807          18.44         -110.9          108.0           65.2
    0.2367              -38.32          13.32          80.62           39.2          -12.5          5.628          6.786          18.44         -110.9          107.9          65.22
     0.284              -38.32          13.31          80.61           39.2          -12.5          5.625          6.763          18.43         -110.9          107.9          65.23
    0.3314              -38.32          13.31           80.6          39.21          -12.5          5.622          6.739          18.42         -110.8          107.9          65.25
    0.3787              -38.31          13.31           80.6          39.21          -12.5          5.619          6.713          18.41         -110.8          107.9          65.27
     0.426              -38.31           13.3          80.58          39.22          -12.5          5.616          6.685           18.4         -110.8          107.9           65.3
    0.4734              -38.31           13.3          80.57          39.22          -12.5          5.612          6.655          18.39         -110.8          107.9          65.32
    0.5207              -38.31           13.3          80.56          39.23          -12.5          5.608          6.623          18.38         -110.7          107.9          65.35
    0.5681              -38.31          13.29          80.55          39.23          -12.5          5.604          6.588          18.37         -110.7          107.9          65.38
    0.6154              -38.31          13.29          80.53          39.24          -12.5            5.6           6.55          18.36         -110.6          107.8          65.41
    0.6627               -38.3          13.28          80.52          39.24          -12.5          5.595           6.51          18.35         -110.6          107.8          65.44
    0.7101               -38.3          13.28           80.5          39.25          -12.5           5.59          6.466          18.33         -110.5          107.8          65.48
    0.7574               -38.3          13.27          80.49          39.26          -12.5          5.584          6.418          18.32         -110.5          107.8          65.51
    0.8047               -38.3          13.26          80.47          39.26          -12.5          5.578          6.366           18.3         -110.4          107.8          65.56
    0.8521               -38.3          13.26          80.44          39.27         -12.49          5.571          6.309          18.28         -110.4          107.7           65.6
    0.8994              -38.29          13.25          80.42          39.28         -12.49          5.563          6.246          18.26         -110.3          107.7          65.65
    0.9468              -38.29          13.24           80.4          39.29         -12.49          5.555          6.178          18.24         -110.2          107.7          65.71
    0.9941              -38.29          13.23          80.37           39.3         -12.49          5.546          6.102          18.21         -110.1          107.7          65.77
     1.041              -38.28          13.22          80.34          39.32         -12.49          5.536          6.019          18.19         -110.0          107.6          65.84
     1.089              -38.28          13.21           80.3          39.33         -12.49          5.525          5.927          18.16         -109.9          107.6          65.91
     1.136              -38.27           13.2          80.27          39.35         -12.49          5.513          5.824          18.12         -109.8          107.5          65.99
     1.183              -38.27          13.19          80.22          39.36         -12.49          5.499          5.709          18.09         -109.7          107.5          66.09
     1.231              -38.26          13.17          80.18          39.38         -12.49          5.484          5.581          18.05         -109.6          107.4          66.19
     1.278              -38.25          13.15          80.12           39.4         -12.49          5.467          5.437           18.0         -109.4          107.4          66.31
     1.325              -38.25          13.13          80.06          39.43         -12.48          5.448          5.274          17.95         -109.2          107.3          66.44
     1.373              -38.24          13.11          79.99          39.46         -12.48          5.426          5.089          17.89         -109.0          107.2          66.59
      1.42              -38.23          13.09          79.91          39.49         -12.48            5.4          4.877          17.82         -108.8          107.1          66.76
     1.467              -38.22          13.06          79.82          39.52         -12.48          5.371          4.635          17.74         -108.5          107.0          66.96
     1.515               -38.2          13.02          79.72          39.57         -12.47          5.338          4.355          17.65         -108.2          106.9          67.18
     1.562              -38.19          12.98           79.6          39.62         -12.47          5.299           4.03          17.54         -107.8          106.8          67.45
     1.609              -38.17          12.94          79.46          39.67         -12.47          5.254          3.649          17.42         -107.4          106.6          67.76
     1.657              -38.15          12.88          79.29          39.74         -12.46          5.201            3.2          17.27         -106.9          106.4          68.12
     1.704              -38.12          12.82          79.09          39.82         -12.46          5.137          2.667           17.1         -106.3          106.2          68.55
     1.752              -38.09          12.74          78.86          39.92         -12.45          5.061          2.028          16.89         -105.6          105.9          69.07
     1.799              -38.06          12.65          78.57          40.03         -12.44          4.969          1.255          16.64         -104.8          105.6          69.69
     1.846              -38.01          12.54          78.22          40.17         -12.43          4.856           0.31          16.34         -103.7          105.2          70.46
     1.894              -37.96           12.4          77.79          40.35         -12.42          4.717        -0.8559          15.96         -102.4          104.7           71.4
     1.941              -37.89          12.22          77.25          40.57         -12.41          4.544          -2.31          15.49         -100.8          104.1          72.58
     1.988               -37.8           12.0          76.57          40.84         -12.39          4.326         -4.141          14.89         -98.77          103.3          74.06
     2.036              -37.69          11.72           75.7          41.19         -12.36          4.048         -6.469          14.14         -96.19          102.3          75.95
     2.083              -37.55          11.37           74.6          41.64         -12.33          3.693         -9.449          13.17         -92.88          101.0          78.36
      2.13              -37.37          10.91          73.18          42.22         -12.29          3.238         -13.27          11.94         -88.64          99.36          81.46
     2.178              -37.14          10.32          71.37          42.95         -12.24          2.656         -18.16          10.35         -83.22          97.27          85.41
     2.225              -36.85          9.584          69.09          43.88         -12.18          1.924          -24.3          8.361          -76.4          94.64          90.38
     2.272               -36.5          8.685          66.31           45.0          -12.1          1.032         -31.78          5.935          -68.1          91.44          96.44
